<svg width="10" height="10" viewBox="0 0 10 10" fill="none" xmlns="http://www.w3.org/2000/svg">
<path fill-rule="evenodd" clip-rule="evenodd" d="M5 10C7.76142 10 10 7.76142 10 5C10 2.23858 7.76142 0 5 0C2.23858 0 0 2.23858 0 5C0 7.76142 2.23858 10 5 10ZM4.375 6.125C4.375 5.84886 4.15114 5.625 3.875 5.625H2.49999C2.22385 5.625 1.99999 5.40114 1.99999 5.125V4.875C1.99999 4.59886 2.22385 4.375 2.49999 4.375H3.875C4.15114 4.375 4.375 4.15114 4.375 3.875V2.5C4.375 2.22386 4.59886 2 4.875 2H5.125C5.40114 2 5.625 2.22386 5.625 2.5V3.875C5.625 4.15114 5.84886 4.375 6.125 4.375H7.49999C7.77614 4.375 7.99999 4.59886 7.99999 4.875V5.125C7.99999 5.40114 7.77614 5.625 7.49999 5.625H6.125C5.84886 5.625 5.625 5.84886 5.625 6.125V7.5C5.625 7.77614 5.40114 8 5.125 8H4.875C4.59886 8 4.375 7.77614 4.375 7.5V6.125Z" fill="#4360DF"/>
</svg>
