<svg width="14" height="15" viewBox="0 0 14 15" fill="none" xmlns="http://www.w3.org/2000/svg">
<path fill-rule="evenodd" clip-rule="evenodd" d="M9.72506 7.44549C7.89646 7.55087 6.75048 7.1249 4.92163 7.23053C4.46805 7.256 4.0176 7.32174 3.57559 7.42698C3.84554 4.04492 6.23913 1.08636 9.49399 0.898303C11.4914 0.78305 13.4878 2.01628 13.5961 4.01827C13.7026 5.98595 12.2021 7.3026 9.72506 7.44549ZM4.81459 14.3634C2.90109 14.4715 0.98883 13.317 0.884985 11.4435C0.782863 9.60197 2.22044 8.36998 4.59337 8.23622C6.34494 8.1375 7.44294 8.53632 9.19452 8.43735C9.62882 8.41354 10.0602 8.35203 10.484 8.25349C10.2258 11.4186 7.93288 14.1876 4.81459 14.3634Z" fill="white"/>
</svg>
