<svg width="18" height="18" viewBox="0 0 18 18" fill="none" xmlns="http://www.w3.org/2000/svg">
<path d="M5.87508 6.49996C5.87508 4.77145 7.27157 3.37496 9.00008 3.37496C10.7286 3.37496 12.1251 4.77145 12.1251 6.49996C12.1251 7.12379 11.8003 7.6476 11.4542 8.03542C11.1012 8.43087 10.6606 8.759 10.2835 9.00233C9.86909 9.26971 9.62508 9.67952 9.62508 10.0809V10.6666C9.62508 11.0118 9.34526 11.2916 9.00008 11.2916C8.6549 11.2916 8.37508 11.0118 8.37508 10.6666V10.0809C8.37508 9.1672 8.91519 8.39758 9.60579 7.95199C9.93673 7.73846 10.2738 7.48067 10.5216 7.20308C10.7762 6.91786 10.8751 6.68149 10.8751 6.49996C10.8751 5.4618 10.0382 4.62496 9.00008 4.62496C7.96193 4.62496 7.12508 5.4618 7.12508 6.49996C7.12508 6.84514 6.84526 7.12496 6.50008 7.12496C6.1549 7.12496 5.87508 6.84514 5.87508 6.49996Z" fill="black"/>
<path d="M9.00008 14.625C9.57538 14.625 10.0417 14.1586 10.0417 13.5833C10.0417 13.008 9.57538 12.5416 9.00008 12.5416C8.42479 12.5416 7.95842 13.008 7.95842 13.5833C7.95842 14.1586 8.42479 14.625 9.00008 14.625Z" fill="black"/>
<path fill-rule="evenodd" clip-rule="evenodd" d="M0.666748 8.99996C0.666748 13.6023 4.39771 17.3333 9.00008 17.3333C13.6025 17.3333 17.3334 13.6023 17.3334 8.99996C17.3334 4.39759 13.6025 0.666626 9.00008 0.666626C4.39771 0.666626 0.666748 4.39759 0.666748 8.99996ZM1.91675 8.99996C1.91675 12.912 5.08806 16.0833 9.00008 16.0833C12.9121 16.0833 16.0834 12.912 16.0834 8.99996C16.0834 5.08794 12.9121 1.91663 9.00008 1.91663C5.08806 1.91663 1.91675 5.08794 1.91675 8.99996Z" fill="black"/>
</svg>
