<svg width="14" height="14" viewBox="0 0 14 14" fill="none" xmlns="http://www.w3.org/2000/svg">
<path d="M6.75 0C7.16421 -1.81058e-08 7.5 0.335787 7.5 0.75V5.5C7.5 5.77614 7.72386 6 8 6H12.75C13.1642 6 13.5 6.33579 13.5 6.75C13.5 7.16421 13.1642 7.5 12.75 7.5H8C7.72386 7.5 7.5 7.72386 7.5 8V12.75C7.5 13.1642 7.16421 13.5 6.75 13.5C6.33579 13.5 6 13.1642 6 12.75V8C6 7.72386 5.77614 7.5 5.5 7.5H0.75C0.335787 7.5 1.81059e-08 7.16421 0 6.75C-1.81058e-08 6.33579 0.335787 6 0.75 6H5.5C5.77614 6 6 5.77614 6 5.5V0.75C6 0.335787 6.33579 1.81058e-08 6.75 0Z"/>
</svg>
