<svg width="12" height="12" viewBox="0 0 12 12" fill="none" xmlns="http://www.w3.org/2000/svg">
<path d="M6 11.0999C8.81665 11.0999 11.1 8.81656 11.1 5.9999C11.1 4.32391 10.2916 2.83675 9.04337 1.90709C8.85124 1.764 8.78048 1.50235 8.8952 1.29204C9.01888 1.0653 9.30824 0.986916 9.51737 1.13849C11.0216 2.22874 12 4.00006 12 5.9999C12 9.31361 9.31371 11.9999 6 11.9999C2.68629 11.9999 1.44847e-07 9.31361 0 5.9999C-8.74158e-08 4.00006 0.978396 2.22874 2.48263 1.13849C2.69176 0.986916 2.98113 1.0653 3.1048 1.29204C3.21952 1.50235 3.14876 1.764 2.95663 1.90709C1.70844 2.83675 0.9 4.32391 0.9 5.9999C0.9 8.81656 3.18335 11.0999 6 11.0999Z" fill="#FF2D55"/>
<path d="M6.45 0.599902C6.45 0.351374 6.24853 0.149902 6 0.149902C5.75147 0.149902 5.55 0.351374 5.55 0.599902V5.9999C5.55 6.24843 5.75147 6.4499 6 6.4499C6.24853 6.4499 6.45 6.24843 6.45 5.9999V0.599902Z" fill="#FF2D55"/>
</svg>
