<svg width="24" height="24" viewBox="0 0 24 24" fill="none" xmlns="http://www.w3.org/2000/svg">
<path fill-rule="evenodd" clip-rule="evenodd" d="M14.0241 11.8892C12.5859 11.972 11.6845 11.637 10.2461 11.7201C9.8893 11.7401 9.53501 11.7918 9.18735 11.8746C9.39968 9.21449 11.2823 6.88748 13.8424 6.73957C15.4134 6.64892 16.9837 7.61889 17.0688 9.19353C17.1526 10.7412 15.9726 11.7766 14.0243 11.889L14.0241 11.8892ZM10.1619 17.3303C8.65684 17.4153 7.15277 16.5073 7.0711 15.0338C6.99077 13.5853 8.12148 12.6163 9.98787 12.5111C11.3655 12.4335 12.2292 12.7471 13.6068 12.6693C13.9484 12.6506 14.2878 12.6022 14.621 12.5247C14.418 15.0142 12.6145 17.1921 10.1619 17.3303ZM12 0.000194109C5.37252 -2.50833e-09 0 5.37244 0 12C0 18.6276 5.37252 24 12 24C18.6275 24 24 18.6274 24 12C24 5.37263 18.6275 0 12 0" fill="#4360DF"/>
</svg>
