<svg width="48" height="48" viewBox="0 0 48 48" fill="none" xmlns="http://www.w3.org/2000/svg">
<g filter="url(#filter0_d)">
<circle cx="24" cy="22" r="16" fill="black" fill-opacity="0.8"/>
</g>
<path d="M23.5002 16.3333C23.7763 16.3333 24.0002 16.1094 24.0002 15.8333C24.0002 15.5571 23.7763 15.3333 23.5002 15.3333L20.0002 15.3333C18.5274 15.3333 17.3335 16.5272 17.3335 17.9999L17.3335 25.9999C17.3335 27.4727 18.5274 28.6666 20.0002 28.6666H28.0002C29.4729 28.6666 30.6668 27.4727 30.6668 25.9999V22.4999C30.6668 22.2238 30.443 21.9999 30.1668 21.9999C29.8907 21.9999 29.6668 22.2238 29.6668 22.4999V25.9999C29.6668 26.9204 28.9206 27.6666 28.0002 27.6666H20.0002C19.0797 27.6666 18.3335 26.9204 18.3335 25.9999L18.3335 17.9999C18.3335 17.0794 19.0797 16.3333 20.0002 16.3333L23.5002 16.3333Z" fill="white"/>
<path fill-rule="evenodd" clip-rule="evenodd" d="M30.187 15.813C29.5316 15.1575 28.4688 15.1575 27.8133 15.813L22.2242 21.4021C22.0039 21.6224 21.8434 21.8952 21.7578 22.1948L21.1861 24.1959C21.1362 24.3705 21.1849 24.5584 21.3133 24.6868C21.4417 24.8152 21.6296 24.8639 21.8042 24.814L23.8053 24.2423C24.1049 24.1567 24.3777 23.9961 24.598 23.7758L30.187 18.1868C30.8425 17.5313 30.8426 16.4685 30.187 15.813ZM28.5204 16.5201C28.7854 16.2552 29.215 16.2552 29.4799 16.5201C29.7449 16.7851 29.7449 17.2147 29.4799 17.4797L23.8909 23.0687C23.7908 23.1689 23.6668 23.2418 23.5306 23.2807C23.0356 23.4222 22.5779 22.9645 22.7193 22.4695C22.7582 22.3333 22.8312 22.2093 22.9314 22.1092L28.5204 16.5201Z" fill="white"/>
<defs>
<filter id="filter0_d" x="0" y="0" width="48" height="48" filterUnits="userSpaceOnUse" color-interpolation-filters="sRGB">
<feFlood flood-opacity="0" result="BackgroundImageFix"/>
<feColorMatrix in="SourceAlpha" type="matrix" values="0 0 0 0 0 0 0 0 0 0 0 0 0 0 0 0 0 0 127 0"/>
<feOffset dy="2"/>
<feGaussianBlur stdDeviation="4"/>
<feColorMatrix type="matrix" values="0 0 0 0 0 0 0 0 0 0.136 0 0 0 0 0.4 0 0 0 0.25 0"/>
<feBlend mode="normal" in2="BackgroundImageFix" result="effect1_dropShadow"/>
<feBlend mode="normal" in="SourceGraphic" in2="effect1_dropShadow" result="shape"/>
</filter>
</defs>
</svg>
