<svg width="228" height="82" viewBox="0 0 228 82" fill="none" xmlns="http://www.w3.org/2000/svg">
<g filter="url(#filter0_d)">
<path fill-rule="evenodd" clip-rule="evenodd" d="M39.6546 78.7383C37.8243 78.8018 35.9918 78.7287 34.1724 78.5196C33.5676 78.445 32.976 78.3563 32.3839 78.254C27.6052 77.4504 23.037 75.6953 18.9511 73.093C14.8651 70.4908 11.3448 67.0946 8.59932 63.1062C5.85384 59.1178 3.93929 54.6188 2.96947 49.8765C1.99966 45.1342 1.99437 40.2454 2.95394 35.5009C3.9135 30.7563 5.81833 26.2528 8.55517 22.2581C11.292 18.2634 14.805 14.8589 18.8853 12.2472C22.9656 9.63551 27.53 7.86981 32.307 7.05509C37.084 6.24037 41.9762 6.39326 46.6927 7.50468C47.4931 7.69544 48.2809 7.91399 49.0554 8.14667C55.0353 10.0035 60.4322 13.3744 64.7212 17.9316C69.0102 22.4888 72.0453 28.0773 73.5314 34.1533C73.817 35.3269 74.0412 36.5145 74.2031 37.7114C74.5438 40.1534 74.6301 42.6242 74.4605 45.0841C74.3825 46.2894 74.2417 47.4897 74.0387 48.6804C72.629 56.8697 68.4429 64.326 62.1825 69.7988C55.922 75.2715 47.968 78.4278 39.6546 78.7383Z" fill="white"/>
<path fill-rule="evenodd" clip-rule="evenodd" d="M43.783 42.1635C39.95 42.5297 37.5126 41.7126 33.6928 42.0647C32.7402 42.15 31.7977 42.3248 30.878 42.5868C31.1905 35.4675 36.0044 29.0933 42.8268 28.4996C47.0012 28.1078 51.2883 30.5553 51.6671 34.7388C52.0458 38.9222 48.9802 41.6676 43.7844 42.2044L43.783 42.1635ZM33.983 57.0368C29.9717 57.3956 25.8821 55.1188 25.5671 51.1929C25.2521 47.267 28.1444 44.6507 33.1106 44.2039C36.7805 43.8707 39.1198 44.6229 42.7897 44.2896C43.7095 44.2086 44.6199 44.0441 45.5098 43.7982C45.1269 50.4688 40.5178 56.4395 33.983 57.0368ZM37.2769 10.6628C30.9424 10.884 24.8157 12.9764 19.6714 16.6754C14.5272 20.3744 10.5966 25.5138 8.37662 31.4438C6.15663 37.3738 5.74698 43.828 7.19948 49.9902C8.65198 56.1524 11.9014 61.7459 16.5368 66.0633C21.1722 70.3807 26.9854 73.2281 33.2413 74.2455C39.4972 75.2629 45.9148 74.4045 51.6826 71.7789C57.4504 69.1533 62.3093 64.8785 65.6448 59.4949C68.9804 54.1113 70.6428 47.8609 70.4219 41.5339C70.1256 33.0498 66.4671 25.0309 60.2512 19.2415C54.0353 13.452 45.7712 10.3662 37.2769 10.6628Z" fill="#4360DF"/>
<path d="M226.603 44.8696C226.698 47.0716 226.03 49.239 224.709 51.0052C223.465 52.6385 221.809 53.9132 219.911 54.6996C217.976 55.5065 215.908 55.945 213.811 55.9925C210.575 56.2549 207.34 55.477 204.578 53.7724C203.309 52.9503 202.235 51.8611 201.431 50.581C200.627 49.301 200.114 47.8609 199.926 46.3617C199.851 45.7936 199.896 45.2162 200.058 44.6666C200.22 44.117 200.496 43.6075 200.868 43.171C200.895 43.1348 200.926 43.1017 200.96 43.0721L200.81 43.0774C200.346 43.093 199.882 43.0354 199.435 42.9067C199.308 42.8989 199.18 42.9034 199.053 42.92L198.889 42.9257L199.21 52.1417C199.248 53.228 198.853 54.2849 198.111 55.0799C197.368 55.8749 196.34 56.3429 195.253 56.3809L188.5 56.6167C187.607 56.6491 186.727 56.3895 185.996 55.8771C185.264 55.3648 184.72 54.6278 184.445 53.7782C183.412 54.7645 182.212 55.5607 180.901 56.1302C178.984 56.9501 176.927 57.3933 174.842 57.4354C172.375 57.5739 169.912 57.0961 167.677 56.0452C167.329 55.8796 167.008 55.6995 166.686 55.5057C166.335 56.091 165.844 56.5795 165.256 56.9271C164.668 57.2747 164.003 57.4702 163.32 57.496L155.624 57.7647C154.754 57.7942 153.897 57.5465 153.177 57.0573C152.49 57.5984 151.647 57.9057 150.772 57.9342L144.019 58.17C143.095 58.2024 142.188 57.9223 141.443 57.3752C140.699 56.8281 140.161 56.0459 139.917 55.1555C139.076 56.0171 138.11 56.7467 137.05 57.3198C134.893 58.3746 132.526 58.9314 130.125 58.949C127.723 58.9667 125.348 58.4446 123.176 57.4215C122.082 56.8622 121.075 56.1468 120.187 55.2977C120.104 56.3033 119.653 57.2432 118.919 57.9372C118.186 58.6312 117.222 59.0306 116.212 59.059L109.555 59.2915C108.72 59.3227 107.896 59.0987 107.192 58.6495C106.996 58.7479 106.793 58.8327 106.585 58.9031C106.234 59.0247 105.733 59.1789 105.068 59.3525C104.177 59.5856 103.266 59.7363 102.347 59.8029C102.005 59.8149 101.677 59.8263 101.362 59.8373C99.7928 59.9192 98.2216 59.7099 96.7285 59.2199C94.8699 58.6116 93.2704 57.3963 92.1874 55.7697C91.9487 55.4065 91.7387 55.0253 91.559 54.6297C91.4983 54.7506 91.4292 54.8673 91.3522 54.9786C90.0883 56.8901 88.2818 58.3811 86.1641 59.2608C83.9746 60.1697 81.6322 60.6551 79.2615 60.6911C76.7992 60.8182 74.3351 60.4775 72 59.687C69.6579 58.8797 67.6219 57.3708 66.1694 55.3659C64.6811 53.1989 63.8722 50.6385 63.8459 48.0106C63.8257 47.4707 63.9126 46.932 64.1016 46.4257C64.2906 45.9194 64.578 45.4554 64.9472 45.0605C65.1452 44.841 65.368 44.6451 65.6112 44.4768C64.6989 42.9188 64.208 41.1505 64.1865 39.3457C64.065 36.9992 64.7037 34.676 66.0081 32.7205C67.3035 30.8594 69.0767 29.3809 71.1416 28.4403C73.2913 27.4382 75.6254 26.8912 77.997 26.8339C80.3858 26.7021 82.775 27.0849 85.0025 27.9562C86.9911 28.75 88.7293 30.0632 90.035 31.7585C90.1975 30.8315 90.6743 29.9886 91.3855 29.3714C92.0966 28.7541 92.9988 28.4 93.9404 28.3686L100.693 28.1328C101.486 28.1053 102.27 28.3079 102.949 28.716C103.629 29.1241 104.176 29.7203 104.523 30.4323C104.7 28.8438 105.428 27.3672 106.581 26.2595C107.94 24.9277 109.749 24.1523 111.651 24.0858C113.554 24.0194 115.412 24.6668 116.861 25.9005C117.611 26.5342 118.219 27.3195 118.644 28.2047C119.069 29.0899 119.301 30.055 119.326 31.0363C119.366 32.0149 119.194 32.9906 118.823 33.8972C119.192 34.4266 119.424 35.038 119.502 35.678C120.33 34.7668 121.284 33.9786 122.335 33.3372C124.434 32.1778 126.768 31.5043 129.162 31.3662C131.557 31.2282 133.953 31.6292 136.171 32.5396C137.229 33.0323 138.21 33.6749 139.085 34.4473L138.898 29.1089C138.86 28.0226 139.256 26.9656 139.998 26.1706C140.74 25.3756 141.768 24.9077 142.856 24.8697L149.609 24.6339C150.697 24.5959 151.755 24.991 152.551 25.7323C153.346 26.4736 153.815 27.5003 153.853 28.5867L153.93 30.7985C154.161 30.7701 154.395 30.7619 154.627 30.7741L162.214 30.5092C162.941 30.4851 163.661 30.6543 164.3 30.9994C164.94 31.3446 165.476 31.8533 165.855 32.4736C166.147 32.2516 166.45 32.0448 166.764 31.854C168.884 30.5872 171.3 29.8994 173.77 29.8596C175.583 29.7795 177.397 30.0312 179.12 30.6023C180.805 31.1745 182.345 32.1047 183.635 33.329C183.725 32.3281 184.179 31.3948 184.912 30.7063C185.645 30.0179 186.605 29.6224 187.611 29.595L194.159 29.3663C194.674 29.3444 195.188 29.424 195.672 29.6005C196.603 29.2103 197.598 28.9948 198.606 28.965C199.11 28.9492 199.613 28.9682 200.114 29.0217C200.579 29.0868 201.039 29.1803 201.492 29.3016C202.498 29.5643 203.366 30.1984 203.922 31.0759C204.713 30.4871 205.574 29.9979 206.485 29.6194C208.403 28.8778 210.437 28.4783 212.493 28.439C215.614 28.1944 218.732 28.9472 221.396 30.5887C222.695 31.4215 223.778 32.5505 224.555 33.8827C225.332 35.2149 225.781 36.7123 225.865 38.2518C225.93 39.0668 225.748 39.8825 225.345 40.5939C226.125 41.8874 226.558 43.36 226.603 44.8696Z" fill="white"/>
<path d="M86.9778 43.7581C86.2502 43.0838 85.4118 42.5397 84.4992 42.1496C83.3418 41.6628 82.1305 41.315 80.8909 41.1137L78.7979 40.7494C78.2692 40.6669 77.7478 40.5435 77.2384 40.38C76.8586 40.2645 76.4944 40.1028 76.1541 39.8985C75.8973 39.7471 75.6828 39.5336 75.5302 39.2778C75.3955 39.0282 75.329 38.7476 75.3376 38.4643C75.3363 38.1155 75.4387 37.7741 75.6318 37.4834C75.8773 37.1582 76.2104 36.9095 76.5922 36.7664C77.1417 36.5674 77.7214 36.4639 78.3059 36.4605C79.1789 36.3566 80.0602 36.5683 80.7903 37.0572C81.0748 37.2861 81.3089 37.5711 81.478 37.8945C81.6471 38.218 81.7475 38.5728 81.7729 38.9367L88.307 38.7085C88.2845 37.1851 87.8088 35.7028 86.9402 34.4503C86.0569 33.2186 84.8354 32.269 83.4232 31.7161C81.7429 31.0599 79.9395 30.7776 78.1388 30.889C76.3328 30.9146 74.5521 31.3166 72.9108 32.0695C71.4995 32.707 70.29 33.7184 69.4134 34.994C68.5883 36.2366 68.1929 37.7146 68.2875 39.2026C68.2688 40.0685 68.4442 40.9276 68.8009 41.717C69.1576 42.5064 69.6867 43.206 70.3492 43.7647C71.9033 44.9582 73.7412 45.7278 75.6828 45.998L78.1892 46.4436C78.9368 46.5726 79.6717 46.7665 80.3856 47.0231C80.8413 47.1744 81.257 47.4262 81.602 47.7598C81.8418 48.0395 81.9837 48.3897 82.0064 48.7572C82.0156 49.1558 81.8893 49.5457 81.6481 49.8633C81.3698 50.2234 80.9949 50.4972 80.5671 50.6529C79.9823 50.8633 79.3659 50.9727 78.7444 50.9763C77.9831 51.0252 77.2199 50.9169 76.5024 50.6582C75.8985 50.438 75.3746 50.0421 74.9983 49.5214C74.6416 48.9569 74.4397 48.3087 74.4126 47.6418L67.9469 47.8675C67.9512 49.6821 68.489 51.4553 69.4936 52.9671C70.4566 54.2965 71.8123 55.2913 73.3703 55.8117C75.2155 56.429 77.1614 56.6904 79.1044 56.5821C80.9695 56.5664 82.8146 56.1958 84.5408 55.49C85.9194 54.9384 87.1049 53.9937 87.9496 52.7737C88.7527 51.5133 89.1324 50.0299 89.0335 48.5392C89.0105 47.6407 88.8265 46.7536 88.4904 45.9199C88.1435 45.1013 87.6282 44.3648 86.9778 43.7581Z" fill="black"/>
<path d="M103.471 50.4542C103.235 50.513 102.993 50.5489 102.749 50.5614C102.501 50.5805 102.252 50.5425 102.02 50.4501C101.84 50.382 101.689 50.2515 101.597 50.0822C101.49 49.8819 101.436 49.6583 101.437 49.4316L101.163 41.581L104.389 41.4683L104.218 36.5804L100.992 36.6931L100.835 32.2012L94.0827 32.437L94.2396 36.9289L91.8337 37.0129L92.0044 41.9008L94.4103 41.8168L94.7064 50.2954C94.694 51.4391 94.9986 52.5639 95.5863 53.5455C96.168 54.4164 97.031 55.0617 98.0315 55.3739C99.3007 55.7674 100.639 55.8884 101.958 55.7289C102.629 55.6804 103.294 55.5702 103.945 55.3998L105.3 55.0244L104.15 50.3074C103.928 50.3738 103.701 50.4229 103.471 50.4542Z" fill="black"/>
<path d="M115.441 36.1886L108.688 36.4244L109.344 55.1977L116.097 54.9618L115.441 36.1886Z" fill="black"/>
<path d="M112.01 34.3538C112.878 34.3424 113.707 33.9892 114.316 33.3711C114.617 33.0874 114.854 32.7425 115.011 32.3598C115.167 31.9771 115.24 31.5653 115.224 31.1522C115.213 30.7406 115.112 30.3364 114.929 29.9675C114.746 29.5986 114.485 29.2738 114.164 29.0157C113.499 28.4577 112.65 28.1658 111.781 28.1961C110.913 28.2264 110.087 28.5769 109.462 29.1799C109.16 29.4647 108.925 29.8123 108.773 30.1979C108.621 30.5835 108.556 30.9978 108.582 31.4115C108.592 31.8239 108.691 32.2293 108.871 32.6004C109.052 32.9714 109.31 33.2993 109.628 33.5621C110.29 34.123 111.144 34.4067 112.01 34.3538Z" fill="black"/>
<path d="M128.393 41.0402C128.82 40.6876 129.353 40.4906 129.907 40.4816C130.252 40.4583 130.598 40.51 130.921 40.6333C131.245 40.7565 131.537 40.9483 131.779 41.1954C132.328 41.8121 132.654 42.5949 132.705 43.4186L138.98 43.1995C138.952 41.701 138.508 40.2397 137.696 38.9793C136.906 37.7842 135.784 36.8449 134.468 36.276C132.856 35.6389 131.124 35.3597 129.392 35.458C127.661 35.5562 125.972 36.0294 124.442 36.8448C123.045 37.6768 121.922 38.8994 121.212 40.3614C120.464 41.9552 120.125 43.7101 120.227 45.4674C120.247 47.2276 120.707 48.9549 121.566 50.4922C122.366 51.9039 123.568 53.0466 125.02 53.7753C126.605 54.4822 128.325 54.8365 130.061 54.8137C131.798 54.7908 133.508 54.3913 135.074 53.6429C136.343 52.9697 137.39 51.946 138.092 50.6942C138.796 49.3491 139.135 47.8432 139.075 46.3265L132.815 46.5452C132.807 47.1214 132.677 47.6895 132.435 48.2125C132.237 48.6457 131.923 49.0161 131.528 49.2831C131.123 49.5405 130.653 49.6756 130.173 49.6721C129.62 49.7017 129.074 49.5424 128.624 49.2204C128.122 48.8432 127.746 48.3225 127.546 47.7271C127.249 46.9126 127.094 46.0535 127.087 45.1868C127.032 44.3173 127.127 43.4447 127.367 42.6071C127.539 41.9916 127.898 41.4444 128.393 41.0402Z" fill="black"/>
<path d="M162.355 34.5502L154.768 34.8152L150.437 41.2819L150.191 41.2905L149.752 28.7295L142.999 28.9653L143.873 53.9917L150.626 53.7559L150.44 48.4312L151.407 47.1124L155.479 53.5865L163.216 53.3163L156.245 43.0065L162.355 34.5502Z" fill="black"/>
<path d="M180.808 36.2438C179.942 35.4398 178.913 34.8323 177.79 34.4627C176.54 34.054 175.226 33.8775 173.912 33.942C172.148 33.9625 170.419 34.4422 168.897 35.3337C167.517 36.1678 166.409 37.3842 165.707 38.8353C164.945 40.4299 164.602 42.1918 164.709 43.9553C164.72 45.7607 165.182 47.5347 166.052 49.1166C166.871 50.4952 168.082 51.5996 169.53 52.2897C171.169 53.0369 172.967 53.3686 174.765 53.2551C176.32 53.2356 177.857 52.9126 179.289 52.3043C180.495 51.8013 181.55 50.9972 182.355 49.969C183.119 48.9688 183.598 47.7806 183.741 46.5305L177.548 46.7467C177.43 47.0964 177.23 47.4128 176.965 47.6693C176.684 47.9343 176.351 48.1369 175.986 48.264C175.578 48.4192 175.146 48.5036 174.709 48.5136C174.113 48.5516 173.519 48.4308 172.986 48.1637C172.513 47.9249 172.119 47.5539 171.853 47.096C171.584 46.6055 171.438 46.0571 171.428 45.4978L171.418 45.1974L183.652 44.7702L183.597 43.2137C183.565 41.8394 183.281 40.4827 182.76 39.2103C182.324 38.096 181.659 37.0854 180.808 36.2438ZM171.289 41.5247C171.286 41.0389 171.416 40.5615 171.665 40.1446C171.926 39.7218 172.297 39.378 172.739 39.1502C173.196 38.8967 173.708 38.7569 174.23 38.7427C174.753 38.7171 175.274 38.821 175.747 39.0451C176.19 39.2519 176.57 39.5739 176.847 39.9773C177.116 40.3792 177.274 40.8454 177.304 41.3283L171.289 41.5247Z" fill="black"/>
<path d="M198.735 33.0338C197.778 33.0506 196.859 33.4074 196.142 34.0402C195.333 34.8377 194.799 35.8712 194.617 36.9915L194.412 36.9987L194.287 33.4352L187.726 33.6643L188.381 52.4376L195.148 52.2013L194.806 42.4255C194.769 41.7697 194.902 41.1152 195.192 40.5256C195.485 40.0002 195.92 39.5681 196.448 39.2788C196.979 38.9534 197.587 38.7764 198.21 38.7662C198.631 38.7612 199.052 38.7784 199.471 38.8178C199.895 38.841 200.316 38.9134 200.724 39.0338L200.521 33.2312C200.241 33.1563 199.955 33.1023 199.667 33.0696C199.358 33.0341 199.046 33.0221 198.735 33.0338Z" fill="black"/>
<path d="M220.952 41.7585C219.662 40.8493 218.156 40.2939 216.584 40.1476L212.746 39.5981C212.22 39.5637 211.713 39.3878 211.278 39.0889C211.162 38.9997 211.068 38.8859 211.002 38.7558C210.936 38.6257 210.9 38.4826 210.896 38.3368C210.876 38.1421 210.918 37.9462 211.015 37.7762C211.112 37.6063 211.26 37.4707 211.438 37.3883C211.898 37.1473 212.41 37.0216 212.93 37.0217C213.35 37.0018 213.77 37.0614 214.168 37.1972C214.521 37.3227 214.839 37.5322 215.093 37.8074C215.343 38.0788 215.498 38.4232 215.538 38.7898L221.757 38.5726C221.716 37.6523 221.454 36.7554 220.992 35.9578C220.531 35.1601 219.884 34.4852 219.106 33.9901C217.154 32.8294 214.885 32.3153 212.623 32.5214C211.048 32.5466 209.489 32.8415 208.013 33.3932C206.848 33.8275 205.834 34.5893 205.093 35.5867C204.407 36.565 204.081 37.7499 204.17 38.9407C204.156 39.6068 204.283 40.2683 204.54 40.8831C204.797 41.4978 205.179 42.0523 205.663 42.5111C206.933 43.5386 208.488 44.1522 210.118 44.2693L213.473 44.7399C214.04 44.7968 214.592 44.9534 215.105 45.2024C215.265 45.2797 215.402 45.3986 215.501 45.5465C215.6 45.6945 215.658 45.8663 215.668 46.044C215.664 46.2364 215.608 46.4241 215.505 46.5868C215.402 46.7494 215.257 46.8808 215.084 46.9666C214.613 47.2056 214.092 47.3315 213.564 47.3341C212.895 47.3825 212.225 47.2399 211.634 46.923C211.391 46.781 211.181 46.5883 211.02 46.358C210.858 46.1277 210.748 45.8653 210.697 45.5887L203.999 45.8226C204.115 46.7473 204.435 47.6348 204.936 48.421C205.437 49.2072 206.106 49.8727 206.895 50.3693C208.945 51.5802 211.325 52.1142 213.696 51.8952C215.284 51.8705 216.852 51.542 218.315 50.9274C219.538 50.4215 220.605 49.6013 221.408 48.5502C222.167 47.5376 222.545 46.2902 222.475 45.0271C222.479 44.4036 222.344 43.7872 222.08 43.2221C221.817 42.6569 221.431 42.1571 220.952 41.7585Z" fill="black"/>
</g>
<defs>
<filter id="filter0_d" x="0" y="5.30017" width="227.979" height="76.7" filterUnits="userSpaceOnUse" color-interpolation-filters="sRGB">
<feFlood flood-opacity="0" result="BackgroundImageFix"/>
<feColorMatrix in="SourceAlpha" type="matrix" values="0 0 0 0 0 0 0 0 0 0 0 0 0 0 0 0 0 0 127 0"/>
<feOffset dy="1"/>
<feGaussianBlur stdDeviation="0.5"/>
<feColorMatrix type="matrix" values="0 0 0 0 0.0901345 0 0 0 0 0.129148 0 0 0 0 0.3 0 0 0 0.15 0"/>
<feBlend mode="normal" in2="BackgroundImageFix" result="effect1_dropShadow"/>
<feBlend mode="normal" in="SourceGraphic" in2="effect1_dropShadow" result="shape"/>
</filter>
</defs>
</svg>
